<?xml version="1.0" standalone="no"?>
<!DOCTYPE svg PUBLIC "-//W3C//DTD SVG 20010904//EN"
 "http://www.w3.org/TR/2001/REC-SVG-20010904/DTD/svg10.dtd">
<svg version="1.0" xmlns="http://www.w3.org/2000/svg"
 width="193.000000pt" height="193.000000pt" viewBox="0 0 193.000000 193.000000"
 preserveAspectRatio="xMidYMid meet">
<metadata>
Created by potrace 1.11, written by Peter Selinger 2001-2013
</metadata>
<g transform="translate(0.000000,193.000000) scale(0.100000,-0.100000)"
fill="#000000" stroke="none">
<path d="M130 1500 l0 -410 190 0 190 0 35 70 c19 39 40 70 45 70 6 0 73 -31
150 -70 80 -40 153 -70 170 -70 l30 0 0 410 0 410 -405 0 -405 0 0 -410z m550
133 c0 -10 -53 -81 -116 -158 l-116 -140 116 -3 c108 -2 116 -4 116 -22 0 -19
-7 -20 -150 -20 -131 0 -150 2 -150 16 0 9 52 78 115 154 63 76 115 141 115
144 0 3 -49 6 -110 6 -103 0 -110 1 -110 20 0 19 7 20 145 20 132 0 145 -2
145 -17z"/>
<path d="M980 1384 c0 -163 3 -294 8 -292 81 42 191 55 240 29 21 -11 21 -11
-3 35 -64 120 12 250 150 262 113 9 200 -68 200 -178 0 -110 -87 -187 -200
-178 l-53 5 24 -32 c27 -36 54 -106 54 -141 l0 -24 195 0 195 0 0 405 0 405
-405 0 -405 0 0 -296z"/>
<path d="M1309 1357 c-128 -85 -52 -275 103 -254 73 10 121 64 121 137 0 113
-130 180 -224 117z"/>
<path d="M130 650 l0 -410 405 0 405 0 0 224 0 224 -30 57 c-25 47 -30 69 -30
124 0 67 0 67 -35 84 l-35 17 -20 -40 c-11 -22 -23 -40 -26 -40 -5 0 -106 50
-112 55 -2 2 6 21 17 44 21 40 21 40 2 51 -11 5 -22 10 -25 10 -3 0 -19 -27
-36 -60 -17 -33 -35 -60 -40 -60 -16 0 -110 49 -110 58 1 4 7 18 15 32 8 14
14 28 15 33 0 4 -81 7 -180 7 l-180 0 0 -410z m550 185 c0 -9 -54 -80 -119
-158 l-119 -142 119 -3 c111 -2 119 -4 119 -22 0 -19 -7 -20 -150 -20 -122 0
-150 3 -150 14 0 8 54 79 120 158 l119 143 -114 3 c-107 2 -115 4 -115 22 0
19 7 20 145 20 124 0 145 -2 145 -15z"/>
<path d="M1078 974 c-28 -15 -58 -61 -58 -89 0 -13 18 -15 120 -15 81 0 120 4
120 11 0 6 -7 25 -15 43 -29 60 -107 83 -167 50z"/>
<path d="M1040 810 c14 -26 61 -50 100 -50 50 0 100 33 100 66 0 2 -47 4 -105
4 -102 0 -105 -1 -95 -20z"/>
<path d="M1388 783 c-39 -108 -132 -173 -247 -173 -44 0 -81 7 -110 20 -24 11
-45 20 -47 20 -2 0 -4 -142 -4 -315 l0 -315 405 0 405 0 0 405 0 405 -193 0
-192 0 -17 -47z m102 -314 c41 -94 77 -175 78 -180 2 -5 -7 -9 -20 -9 -19 0
-29 10 -46 45 l-22 45 -94 0 -95 0 -20 -45 c-16 -36 -25 -45 -45 -45 l-25 0
33 73 c18 41 55 122 81 180 43 97 50 107 74 107 24 0 31 -13 101 -171z"/>
<path d="M1348 498 l-36 -83 70 -3 c39 -2 72 -1 75 1 4 5 -55 145 -67 160 -4
4 -23 -30 -42 -75z"/>
</g>
</svg>
